<?xml version="1.0" encoding="utf-8"?>
<!-- Generator: Adobe Illustrator 27.1.1, SVG Export Plug-In . SVG Version: 6.00 Build 0)  -->
<svg version="1.1" id="Layer_1" xmlns="http://www.w3.org/2000/svg" xmlns:xlink="http://www.w3.org/1999/xlink" x="0px" y="0px"
	 viewBox="0 0 1280 1024" style="enable-background:new 0 0 1280 1024;" xml:space="preserve">
<style type="text/css">
	.st0{opacity:0.1;}
	.st1{fill:none;stroke:#E9DFD4;stroke-width:10.6719;stroke-linecap:square;stroke-linejoin:round;stroke-miterlimit:11.3386;}
	.st2{fill:none;stroke:#FFD167;stroke-width:10.6719;stroke-linejoin:round;}
	.st3{fill:#FFD167;}
	.st4{fill:none;stroke:#FFFFFF;stroke-width:1.334;stroke-miterlimit:11.3386;}
	.st5{fill:none;stroke:#148AB2;stroke-width:10.6719;stroke-linejoin:round;}
	.st6{fill:#148AB2;}
	.st7{fill:none;stroke:#FFFFFF;stroke-width:1.334;stroke-linejoin:round;stroke-miterlimit:11.3386;}
	.st8{fill:none;stroke:#E9DFD4;stroke-width:10.9848;stroke-linecap:square;stroke-linejoin:round;stroke-miterlimit:11.3386;}
	.st9{fill:none;stroke:#FFD167;stroke-width:10.9848;stroke-linejoin:round;}
	.st10{fill:none;stroke:#FFFFFF;stroke-width:1.3731;stroke-miterlimit:11.3386;}
	.st11{fill:none;stroke:#148AB2;stroke-width:10.9848;stroke-linejoin:round;}
	.st12{fill:none;stroke:#FFFFFF;stroke-width:1.3731;stroke-linejoin:round;stroke-miterlimit:11.3386;}
	.st13{fill:none;stroke:#E9DFD4;stroke-width:12.0117;stroke-linecap:square;stroke-linejoin:round;stroke-miterlimit:11.3386;}
	.st14{fill:none;stroke:#FFD167;stroke-width:12.0117;stroke-linejoin:round;}
	.st15{fill:none;stroke:#FFFFFF;stroke-width:1.5014;stroke-miterlimit:11.3386;}
	.st16{fill:none;stroke:#148AB2;stroke-width:12.0117;stroke-linejoin:round;}
	.st17{fill:none;stroke:#FFFFFF;stroke-width:1.5014;stroke-linejoin:round;stroke-miterlimit:11.3386;}
	.st18{fill:none;stroke:#E9DFD4;stroke-width:11.3685;stroke-linecap:square;stroke-linejoin:round;stroke-miterlimit:11.3386;}
	.st19{fill:none;stroke:#FFD167;stroke-width:11.3685;stroke-linejoin:round;}
	.st20{fill:none;stroke:#FFFFFF;stroke-width:1.4211;stroke-miterlimit:11.3386;}
	.st21{fill:none;stroke:#148AB2;stroke-width:11.3685;stroke-linejoin:round;}
	.st22{fill:none;stroke:#FFFFFF;stroke-width:1.4211;stroke-linejoin:round;stroke-miterlimit:11.3386;}
	.st23{fill:none;stroke:#E9DFD4;stroke-width:8.5718;stroke-linecap:square;stroke-linejoin:round;stroke-miterlimit:11.3386;}
	.st24{fill:none;stroke:#FFD167;stroke-width:8.5718;stroke-linejoin:round;}
	.st25{fill:none;stroke:#FFFFFF;stroke-width:1.0714;stroke-miterlimit:11.3386;}
	.st26{fill:none;stroke:#148AB2;stroke-width:8.5718;stroke-linejoin:round;}
	.st27{fill:none;stroke:#FFFFFF;stroke-width:1.0714;stroke-linejoin:round;stroke-miterlimit:11.3386;}
	.st28{fill:none;stroke:#E9DFD4;stroke-width:12.8388;stroke-linecap:square;stroke-linejoin:round;stroke-miterlimit:11.3386;}
	.st29{fill:none;stroke:#FFD167;stroke-width:12.8388;stroke-linejoin:round;}
	.st30{fill:none;stroke:#FFFFFF;stroke-width:1.6049;stroke-miterlimit:11.3386;}
	.st31{fill:none;stroke:#148AB2;stroke-width:12.8388;stroke-linejoin:round;}
	.st32{fill:none;stroke:#FFFFFF;stroke-width:1.6049;stroke-linejoin:round;stroke-miterlimit:11.3386;}
	.st33{fill:none;stroke:#E9DFD4;stroke-width:12.2469;stroke-linecap:square;stroke-linejoin:round;stroke-miterlimit:11.3386;}
	.st34{fill:none;stroke:#FFD167;stroke-width:12.2469;stroke-linejoin:round;}
	.st35{fill:none;stroke:#FFFFFF;stroke-width:1.5309;stroke-miterlimit:11.3386;}
	.st36{fill:none;stroke:#148AB2;stroke-width:12.2469;stroke-linejoin:round;}
	.st37{fill:none;stroke:#FFFFFF;stroke-width:1.5309;stroke-linejoin:round;stroke-miterlimit:11.3386;}
	.st38{fill:none;stroke:#E9DFD4;stroke-width:12.1646;stroke-linecap:square;stroke-linejoin:round;stroke-miterlimit:11.3386;}
	.st39{fill:none;stroke:#FFD167;stroke-width:12.1646;stroke-linejoin:round;}
	.st40{fill:none;stroke:#FFFFFF;stroke-width:1.5205;stroke-miterlimit:11.3386;}
	.st41{fill:none;stroke:#148AB2;stroke-width:12.1646;stroke-linejoin:round;}
	.st42{fill:none;stroke:#FFFFFF;stroke-width:1.5205;stroke-linejoin:round;stroke-miterlimit:11.3386;}
	.st43{fill:none;stroke:#E9DFD4;stroke-width:10.3065;stroke-linecap:square;stroke-linejoin:round;stroke-miterlimit:11.3386;}
	.st44{fill:none;stroke:#FFD167;stroke-width:10.3065;stroke-linejoin:round;}
	.st45{fill:none;stroke:#FFFFFF;stroke-width:1.2883;stroke-miterlimit:11.3386;}
	.st46{fill:none;stroke:#148AB2;stroke-width:10.3065;stroke-linejoin:round;}
	.st47{fill:none;stroke:#FFFFFF;stroke-width:1.2883;stroke-linejoin:round;stroke-miterlimit:11.3386;}
</style>
<g class="st0">
	<path class="st1" d="M324.3,217.8C324.3,217.7,324.2,217.9,324.3,217.8c2.1-11.7-3.3-23.9-14.3-29.8c-6.3-3.3-13.2-4.2-19.6-2.6
		c-1.8,0.3-8.1,1.7-13,4.8c-0.3-6.1-3.5-13.1-3.7-13.5l0,0l0,0c-2.3-6.1-6.8-11.4-13-14.7c-11-5.9-24.2-3.5-32.7,4.8l-0.1,0.1
		c-26.2,24.8,15.1,87.9,15.1,87.9S318.5,253.4,324.3,217.8z"/>
	<g>
		<g>
			<path class="st2" d="M243,254.8c0,0,18.9-0.3,38.5-5.2"/>
			<g>
				<polygon class="st3" points="281.6,261.1 296.9,244.8 275.2,239.7 				"/>
			</g>
		</g>
	</g>
	<polyline class="st4" points="274.7,238.9 298.2,244.4 281.6,262.1 	"/>
	<g>
		<g>
			<path class="st5" d="M219.7,196.7c3.1,27.1,23.4,58,23.4,58"/>
			<g>
				<polygon class="st6" points="231.9,258.1 251.8,268.2 250.6,245.9 				"/>
			</g>
		</g>
	</g>
	<line class="st7" x1="214" y1="196.7" x2="225" y2="195.4"/>
	<line class="st4" x1="251.4" y1="249" x2="252.1" y2="259.7"/>
</g>
<g class="st0">
	<path class="st8" d="M625.5,643.4v0.2c-7.4-9.8-20.5-14.2-32.6-9.8c-6.9,2.5-12.3,7.2-15.5,13.2c-1,1.6-4.3,7.4-5.4,13.1
		c-4.8-3.9-12.4-6.4-12.9-6.5l0,0l0,0c-6.3-2.4-13.4-2.8-20.2-0.3c-12.1,4.4-19.4,16.1-18.8,28.3v0.1c0.8,37.1,77.5,49.2,77.5,49.2
		S648.6,672.5,625.5,643.4z"/>
	<g>
		<g>
			<path class="st9" d="M597.5,730.9c0,0,12.8-14.6,22.7-32.9"/>
			<g>
				<polygon class="st3" points="629,705.9 627.2,683 608.3,696.1 				"/>
			</g>
		</g>
	</g>
	<polyline class="st10" points="607.2,695.9 627.7,681.7 629.7,706.5 	"/>
	<g>
		<g>
			<path class="st11" d="M537,708.6c22.8,16.3,60.5,22.2,60.5,22.2"/>
			<g>
				<polygon class="st6" points="592.4,741.8 613.9,733.5 596,719.1 				"/>
			</g>
		</g>
	</g>
	<line class="st12" x1="533.1" y1="713" x2="539.7" y2="703.7"/>
	<line class="st10" x1="598.8" y1="720.5" x2="607.5" y2="727.4"/>
</g>
<g class="st0">
	<path class="st13" d="M1071.9,734.2C1071.9,734.1,1071.8,734.4,1071.9,734.2c1.3-13.3-5.9-26.5-18.8-32.1
		c-7.4-3.2-15.2-3.5-22.3-1.1c-2,0.5-8.9,2.6-14.1,6.4c-0.9-6.8-5.1-14.4-5.4-14.9l0,0l0,0c-3.2-6.7-8.6-12.2-15.9-15.4
		c-12.9-5.6-27.5-1.8-36.2,8.4l-0.1,0.1C932,715.8,984,782.9,984,782.9S1068.6,774.7,1071.9,734.2z"/>
	<g>
		<g>
			<path class="st14" d="M984.1,783c0,0,21.2-2.1,42.8-9.2"/>
			<g>
				<polygon class="st3" points="1027.9,786.7 1043.6,767 1018.8,763.2 				"/>
			</g>
		</g>
	</g>
	<polyline class="st15" points="1018.1,762.3 1045,766.4 1028,787.7 	"/>
	<g>
		<g>
			<path class="st16" d="M952.6,719.9c6,30.1,31.4,63,31.4,63"/>
			<g>
				<polygon class="st6" points="971.8,787.8 995.1,797.3 991.7,772.4 				"/>
			</g>
		</g>
	</g>
	<line class="st17" x1="946.2" y1="720.5" x2="958.5" y2="718"/>
	<line class="st15" x1="992.9" y1="775.7" x2="994.5" y2="787.7"/>
</g>
<g class="st0">
	<path class="st18" d="M176.2,505.9c0-0.1-0.1,0.2-0.1,0.1c-3-12.3-13.6-21.9-26.9-22.7c-7.6-0.5-14.7,1.8-20.2,6.1
		c-1.6,1.2-7.1,5.2-10.5,10.3c-3-5.7-9.1-11.2-9.5-11.6l0,0l0,0c-4.9-4.9-11.6-8.1-19-8.6c-13.3-0.8-25,7.1-29.6,19
		c0,0.1,0,0.1-0.1,0.1c-14.6,35.5,53.1,78.8,53.1,78.8S186.1,543.1,176.2,505.9z"/>
	<g>
		<g>
			<path class="st19" d="M113.4,577.4c0,0,18.2-8.6,35.1-21.9"/>
			<g>
				<polygon class="st3" points="153.7,566.7 161.4,544.2 138,548.7 				"/>
			</g>
		</g>
	</g>
	<polyline class="st20" points="137.1,548.1 162.4,543.2 154,567.6 	"/>
	<g>
		<g>
			<path class="st21" d="M65.3,531.2c14.9,24.9,48.1,46.1,48.1,46.1"/>
			<g>
				<polygon class="st6" points="104.1,585.6 127.9,586.6 116.9,565.5 				"/>
			</g>
		</g>
	</g>
	<line class="st22" x1="59.8" y1="533.7" x2="69.9" y2="527.6"/>
	<line class="st20" x1="119" y1="568.1" x2="124.3" y2="578.2"/>
</g>
<g class="st0">
	<path class="st23" d="M1089.7,440.2C1089.7,440.2,1089.6,440.3,1089.7,440.2c-2-9.3-9.8-16.8-19.7-17.8c-5.7-0.6-11.1,0.9-15.4,4.1
		c-1.3,0.8-5.5,3.7-8.2,7.4c-2.1-4.4-6.6-8.7-6.9-9l0,0l0,0c-3.6-3.8-8.5-6.4-14.1-7c-9.9-1-19,4.8-22.8,13.5c0,0,0,0.1-0.1,0.1
		c-12,26.4,37.9,60.8,37.9,60.8S1096.2,468.4,1089.7,440.2z"/>
	<g>
		<g>
			<path class="st24" d="M1040.6,492.4c0,0,13.9-6,27.1-15.5"/>
			<g>
				<polygon class="st3" points="1071.2,485.4 1077.6,468.6 1059.8,471.4 				"/>
			</g>
		</g>
	</g>
	<polyline class="st25" points="1059.2,470.9 1078.4,467.9 1071.4,486.1 	"/>
	<g>
		<g>
			<path class="st26" d="M1005.5,456.3c10.6,19.2,35.1,36,35.1,36"/>
			<g>
				<polygon class="st6" points="1033.3,498.3 1051.2,499.7 1043.5,483.5 				"/>
			</g>
		</g>
	</g>
	<line class="st27" x1="1001.3" y1="458.1" x2="1009.1" y2="453.7"/>
	<line class="st25" x1="1045.1" y1="485.5" x2="1048.7" y2="493.3"/>
</g>
<g class="st0">
	<path class="st28" d="M208.8,891.7c0-0.1,0,0.2,0,0.1c-6.6-12.7-20.9-20.3-35.7-17.7c-8.4,1.5-15.6,5.9-20.5,12.2
		c-1.5,1.7-6.4,7.6-8.7,14.1c-4.8-5.5-13.1-9.8-13.6-10.1l0,0l0,0c-6.8-4-14.9-5.8-23.2-4.3c-14.7,2.6-25.5,14.7-27.3,28.8
		c0,0.1,0,0.1,0,0.1c-6.4,42.9,79.6,72,79.6,72S229.8,929.7,208.8,891.7z"/>
	<g>
		<g>
			<path class="st29" d="M159.4,987.1c0,0,17.6-14.4,32.7-33.5"/>
			<g>
				<polygon class="st3" points="200.6,964.4 202.9,937.6 178.6,949 				"/>
			</g>
		</g>
	</g>
	<polyline class="st30" points="177.5,948.6 203.9,936.3 201.3,965.3 	"/>
	<g>
		<g>
			<path class="st31" d="M94.1,949.5c23.1,23.3,65.3,37.6,65.3,37.6"/>
			<g>
				<polygon class="st6" points="151.3,998.6 177.7,993.3 159.9,973.1 				"/>
			</g>
		</g>
	</g>
	<line class="st32" x1="88.8" y1="953.8" x2="98.2" y2="944.3"/>
	<line class="st30" x1="163" y1="975.3" x2="171.5" y2="985"/>
</g>
<g class="st0">
	<path class="st33" d="M1182.5,207.7c0-0.1-0.1,0.2-0.1,0.1c-1.8-13.5-12.1-25.1-26.2-27.4c-8-1.4-15.9,0.1-22.3,4.2
		c-1.9,1-8.2,4.8-12.4,9.8c-2.5-6.5-8.5-13-8.9-13.4l0,0l0,0c-4.7-5.8-11.5-10-19.4-11.4c-14.1-2.4-27.6,4.8-33.9,16.9
		c0,0.1-0.1,0.1-0.1,0.1c-19.7,36.4,47.9,90.5,47.9,90.5S1189,248.6,1182.5,207.7z"/>
	<g>
		<g>
			<path class="st34" d="M1107.1,277c0,0,20.5-7.1,40.2-19.4"/>
			<g>
				<polygon class="st3" points="1151.4,270.2 1162.3,246.9 1136.7,249.2 				"/>
			</g>
		</g>
	</g>
	<polyline class="st35" points="1135.8,248.4 1163.6,246 1151.8,271.2 	"/>
	<g>
		<g>
			<path class="st36" d="M1060.8,222.1c13.1,28.4,46.3,54.9,46.3,54.9"/>
			<g>
				<polygon class="st6" points="1096.1,284.7 1121.5,288.6 1112.2,264.7 				"/>
			</g>
		</g>
	</g>
	<line class="st37" x1="1054.6" y1="224.1" x2="1066.2" y2="218.7"/>
	<line class="st35" x1="1114.1" y1="267.7" x2="1118.6" y2="279.1"/>
</g>
<g class="st0">
	<path class="st38" d="M729.6,389.2c0-0.1,0,0.2-0.1,0.2c-5-12.6-17.7-21.2-31.8-20.3c-8.1,0.6-15.3,3.9-20.5,9.4
		c-1.6,1.4-6.8,6.5-9.7,12.4c-4-5.7-11.3-10.5-11.7-10.8l0,0l0,0c-5.9-4.5-13.4-6.9-21.5-6.4c-14.1,1-25.5,11.2-28.6,24.4
		c0,0.1,0,0.1,0,0.2c-10.4,39.8,67.7,75.8,67.7,75.8S745.5,427.2,729.6,389.2z"/>
	<g>
		<g>
			<path class="st39" d="M673.4,474.1c0,0,18.1-11.8,34.1-28.3"/>
			<g>
				<polygon class="st3" points="714.5,456.9 719.5,431.9 695.3,440.2 				"/>
			</g>
		</g>
	</g>
	<polyline class="st40" points="694.3,439.7 720.4,430.8 715.1,457.9 	"/>
	<g>
		<g>
			<path class="st41" d="M615.6,432.2c19.4,24.3,57.7,42,57.7,42"/>
			<g>
				<polygon class="st6" points="664.7,484.1 690,481.8 675.3,461 				"/>
			</g>
		</g>
	</g>
	<line class="st42" x1="610.1" y1="435.6" x2="620" y2="427.7"/>
	<line class="st40" x1="678" y1="463.4" x2="685" y2="473.4"/>
</g>
<g class="st0">
	<path class="st43" d="M845.3,913.9c0-0.1-0.1,0.1-0.1,0.1c-2.5-11.2-12.1-20.1-24-21c-6.9-0.6-13.3,1.3-18.4,5.2
		c-1.5,1-6.5,4.6-9.7,9.1c-2.6-5.3-8.1-10.3-8.5-10.6l0,0l0,0c-4.4-4.5-10.3-7.6-17.1-8.1c-12-1-22.8,6.1-27.2,16.7
		c0,0.1,0,0.1-0.1,0.1c-13.8,32,46.9,72.3,46.9,72.3S853.7,947.7,845.3,913.9z"/>
	<g>
		<g>
			<path class="st44" d="M787.2,977.7c0,0,16.6-7.5,32.2-19.2"/>
			<g>
				<polygon class="st3" points="823.9,968.6 831.2,948.3 810,952.1 				"/>
			</g>
		</g>
	</g>
	<polyline class="st45" points="809.2,951.5 832.2,947.5 824.2,969.5 	"/>
	<g>
		<g>
			<path class="st46" d="M744.3,935c13.1,22.8,42.9,42.6,42.9,42.6"/>
			<g>
				<polygon class="st6" points="778.6,984.9 800.1,986.3 790.5,966.9 				"/>
			</g>
		</g>
	</g>
	<line class="st47" x1="739.3" y1="937.2" x2="748.6" y2="931.8"/>
	<line class="st45" x1="792.4" y1="969.3" x2="797" y2="978.6"/>
</g>
</svg>
