<?xml version="1.0" encoding="utf-8"?>
<!-- Generator: Adobe Illustrator 27.2.0, SVG Export Plug-In . SVG Version: 6.00 Build 0)  -->
<svg version="1.1" id="Layer_1" xmlns="http://www.w3.org/2000/svg" xmlns:xlink="http://www.w3.org/1999/xlink" x="0px" y="0px"
	 viewBox="0 0 1280 1024" style="enable-background:new 0 0 1280 1024;" xml:space="preserve">
<style type="text/css">
	.st0{opacity:0.1;fill:#1E93B2;enable-background:new    ;}
	.st1{opacity:0.1;fill:#C24765;enable-background:new    ;}
</style>
<path class="st0" d="M130.3,172l-53.1,17.8l-6.4-19.1l53.1-17.8c15.8,5.3,15.8,5.3,15.8,5.3S139.6,158.2,130.3,172z"/>
<path class="st1" d="M207.7,390.4l-68-9.6l2.8-20l68,9.6c11.8,11.9,11.8,11.9,11.8,11.9S222.2,382.3,207.7,390.4z"/>
<path class="st0" d="M1187.4,730.2h-84.6v-30.5h84.6c20.1,15.2,20.1,15.2,20.1,15.2S1207.4,714.9,1187.4,730.2z"/>
<path class="st1" d="M1015.9,887.5H912.2V857h103.7c20.1,15.2,20.1,15.2,20.1,15.2S1036,872.2,1015.9,887.5z"/>
<path class="st0" d="M213.4,828.9L153,872.2l-15.6-21.8l60.4-43.3c22.1,0.6,22.1,0.6,22.1,0.6S219.9,807.8,213.4,828.9z"/>
<path class="st1" d="M507.9,674.3L418,659.5l4.4-26.4l89.9,14.8c15.2,16.1,15.2,16.1,15.2,16.1S527.4,663.9,507.9,674.3z"/>
<path class="st0" d="M1115.2,163.1l-81.4-23l8.3-29.3l81.4,23c15.2,20.1,15.2,20.1,15.2,20.1S1138.7,153.9,1115.2,163.1z"/>
<path class="st1" d="M702.4,296.5H598.6V266h103.7c20.1,15.2,20.1,15.2,20.1,15.2S722.4,281.3,702.4,296.5z"/>
<path class="st0" d="M908.9,542.5h-84.6V512h84.6c20.1,15.2,20.1,15.2,20.1,15.2S929,527.2,908.9,542.5z"/>
<path class="st1" d="M122.3,657.1L22.3,685l-8.2-29.4l99.9-27.8c23.4,9.2,23.4,9.2,23.4,9.2S137.4,637.1,122.3,657.1z"/>
<path class="st0" d="M1201.2,1019.1h-120.8v-43.6h120.8c28.7,21.7,28.7,21.7,28.7,21.7S1229.9,997.3,1201.2,1019.1z"/>
<path class="st0" d="M1198.2,321.7l-93.8,26.9l-9.7-33.8l93.8-26.9c27.1,10.5,27.1,10.5,27.1,10.5S1215.6,298.4,1198.2,321.7z"/>
<path class="st1" d="M338.3,93.3l-68-9.6l2.8-20l68,9.6c11.8,11.9,11.8,11.9,11.8,11.9S352.8,85.2,338.3,93.3z"/>
</svg>
