<?xml version="1.0" encoding="utf-8"?>
<!-- Generator: Adobe Illustrator 27.2.0, SVG Export Plug-In . SVG Version: 6.00 Build 0)  -->
<svg version="1.1" id="Layer_1" xmlns="http://www.w3.org/2000/svg" xmlns:xlink="http://www.w3.org/1999/xlink" x="0px" y="0px"
	 viewBox="0 0 128 128" style="enable-background:new 0 0 128 128;" xml:space="preserve">
<style type="text/css">
	.st0{fill:#FFFFFF;}
	.st1{fill:#1C1C1C;stroke:#1C1C1C;stroke-width:2.1709;stroke-miterlimit:10;}
	.st2{fill:#5DA5DA;stroke:#5DA5DA;stroke-width:0.911;stroke-miterlimit:10;}
	.st3{fill:#60BD68;stroke:#60BD68;stroke-width:2.1709;stroke-miterlimit:10;}
</style>
<path class="st0" d="M113.5,126.7h-98c-8,0-14.5-6.5-14.5-14.5v-98c0-8,6.5-14.5,14.5-14.5h98c8,0,14.5,6.5,14.5,14.5v98
	C128,120.2,121.6,126.7,113.5,126.7z"/>
<g>
	<polygon class="st1" points="92.6,14.9 77.7,6.5 52,6.5 52,23.2 77.7,23.2 	"/>
	<polygon class="st2" points="122.9,14.9 108,6.5 95.3,6.5 95.3,23.2 108,23.2 	"/>
	<polygon class="st3" points="49.1,15.1 34.2,6.7 8.4,6.7 8.4,23.4 34.2,23.4 	"/>
	<polygon class="st1" points="93.3,38.8 78.4,30.4 43.5,30.4 43.5,47.1 78.4,47.1 	"/>
	<polygon class="st2" points="123.6,38.8 108.6,30.4 95.9,30.4 95.9,47.1 108.6,47.1 	"/>
	<polygon class="st3" points="39.7,38.9 24.8,30.6 8.2,30.6 8.2,47.3 24.8,47.3 	"/>
	<polygon class="st1" points="83.7,63.3 68.8,54.9 43.1,54.9 43.1,71.6 68.8,71.6 	"/>
	<polygon class="st3" points="40,63.3 25.1,54.9 8.5,54.9 8.5,71.6 25.1,71.6 	"/>
	<polygon class="st2" points="123.1,63.3 108.2,54.9 86.4,54.9 86.4,71.6 108.2,71.6 	"/>
	<polygon class="st1" points="92.8,87.8 77.8,79.5 43,79.5 43,96.2 77.8,96.2 	"/>
	<polygon class="st2" points="123,86.9 108.1,78.6 95.4,78.6 95.4,95.3 108.1,95.3 	"/>
	<polygon class="st3" points="39.9,87.8 25,79.5 8.4,79.5 8.4,96.2 25,96.2 	"/>
	<polygon class="st1" points="92.6,111.4 77.7,103 42.9,103 42.9,119.7 77.7,119.7 	"/>
	<polygon class="st2" points="122.9,111.4 108,103 95.3,103 95.3,119.7 108,119.7 	"/>
	<polygon class="st3" points="39.1,111.6 24.2,103.2 7.5,103.2 7.5,119.9 24.2,119.9 	"/>
</g>
</svg>
