<?xml version="1.0" encoding="utf-8"?>
<!-- Generator: Adobe Illustrator 27.1.1, SVG Export Plug-In . SVG Version: 6.00 Build 0)  -->
<svg version="1.1" id="Layer_1" xmlns="http://www.w3.org/2000/svg" xmlns:xlink="http://www.w3.org/1999/xlink" x="0px" y="0px"
	 viewBox="0 0 371 167.8" style="enable-background:new 0 0 371 167.8;" xml:space="preserve">
<style type="text/css">
	.st0{fill:none;stroke:#E9DFD4;stroke-width:15;stroke-linecap:square;stroke-linejoin:round;stroke-miterlimit:11.3386;}
	.st1{fill:#84A59D;}
	.st2{font-family:'GreycliffCF-ExtraBold';}
	.st3{font-size:65px;}
	.st4{fill:none;stroke:#FFFFFF;stroke-width:3;stroke-linecap:round;stroke-linejoin:round;stroke-miterlimit:10;}
	
		.st5{opacity:0.8;fill:#5DA5DA;stroke:#FFFFFF;stroke-width:3;stroke-linecap:round;stroke-linejoin:round;stroke-miterlimit:10;enable-background:new    ;}
	
		.st6{opacity:0.8;fill:#DECF3F;stroke:#FFFFFF;stroke-width:3;stroke-linecap:round;stroke-linejoin:round;stroke-miterlimit:10;enable-background:new    ;}
	.st7{fill:#F28482;stroke:#FFFFFF;stroke-width:3;stroke-linecap:round;stroke-linejoin:round;stroke-miterlimit:10;}
	.st8{fill:#F5CAC3;stroke:#FFFFFF;stroke-width:3;stroke-linecap:round;stroke-linejoin:round;stroke-miterlimit:10;}
	.st9{fill:#E9DFD4;}
	.st10{font-size:35.065px;}
</style>
<g>
	<path class="st0" d="M180.6,40.8c0-0.1,0,0.2-0.1,0.2c-5.3-17-21.2-29.5-39.9-29.5c-10.7,0-20.4,3.8-27.8,10.4
		c-2.2,1.7-9.5,7.9-13.8,15.3c-4.7-7.8-13.8-14.9-14.4-15.3l0,0l0,0c-7.3-6.5-17-10.4-27.5-10.4c-18.7,0-34.5,12.3-39.9,29.4
		c0,0.1,0,0.1-0.1,0.2C-0.2,92.3,98.8,147,98.8,147S197.9,92,180.6,40.8z"/>
	<g>
		<text transform="matrix(1 0 0 1 182.6046 155.1237)" class="st1 st2 st3">MSA</text>
	</g>
	<polygon class="st4" points="182,50.6 182,46.2 182,46.2 182,50.6 182,50.6 182,60.4 182,60.4 	"/>
	<path class="st4" d="M158.9,73.6h-23.1l0,0h-23.1v-23l0,0V27.5l0,0v-5.6l0,0v5.6l0,0v23.1l0,0v23.1H89.6l0,0H66.7V50.6l0,0V27.5
		l0,0v-15l0,0v15l0,0v23.1l0,0v23.1H43.6l0,0H20.5V50.6l0,0V33.1l0,0v17.5l0,0v23.1h-0.6l0,0h0.6V75l0,0v-1.3h23.1l0,0h23.1v23.1
		l0,0v23.1h-7.2l0,0h7.2v5.7l0,0v-5.7h23.1l0,0h23.1v18.5l0,0v-18.6H136l0,0h2.4l0,0H136l0,0h-23.1V96.7l0,0V73.6H136l0,0H158.9
		L158.9,73.6h18.9l0,0H158.9L158.9,73.6z M112.8,96.7L112.8,96.7v23.1H89.7l0,0h-23V96.7l0,0V73.6h23.1l0,0h23.1L112.8,96.7
		L112.8,96.7z"/>
	<polygon class="st5" points="182,50.6 182,50.6 182.5,50.6 182.5,50.6 	"/>
	<polygon class="st5" points="182,50.6 182,50.6 182.5,50.6 182.5,50.6 	"/>
	<rect x="89.7" y="73.6" class="st6" width="0" height="23.1"/>
	<polygon class="st6" points="89.7,96.7 112.8,96.7 112.8,96.7 	"/>
	<path class="st6" d="M89.7,96.7L89.7,96.7L89.7,96.7z"/>
	<g>
		<path class="st7" d="M43.6,13.6c-7.7,2.6-14.4,7.5-19.4,13.8h19.4C43.6,27.4,43.6,13.6,43.6,13.6z"/>
		<polygon class="st7" points="43.6,27.5 43.6,13.6 43.6,13.6 		"/>
		<path class="st7" d="M89.7,27.5v-1.3c-2.7-2.5-4.8-4.2-5.1-4.4l0,0l0,0c-5.1-4.5-11.2-7.7-17.9-9.3v15H89.7L89.7,27.5z"/>
		<polygon class="st7" points="89.7,27.5 89.7,26.2 89.7,26.2 		"/>
		<path class="st7" d="M173.4,27.5c-3.9-5-8.8-9-14.5-11.8v11.8H173.4z"/>
		<polygon class="st7" points="158.9,27.5 158.9,15.7 158.9,15.7 		"/>
		<path class="st7" d="M20.5,33.1c-1.3,2.4-2.4,5-3.3,7.7c0,0.1,0,0.1-0.1,0.2c-1.1,3.2-1.7,6.4-1.9,9.6h5.3V33.1L20.5,33.1z"/>
		<path class="st7" d="M43.6,50.6V27.5H24.2c-1.4,1.8-2.6,3.6-3.7,5.6v17.5H43.6z"/>
		<polygon class="st7" points="43.6,27.5 24.2,27.5 24.2,27.5 		"/>
		<polygon class="st7" points="43.6,27.5 24.2,27.5 24.2,27.5 		"/>
		<rect x="43.6" y="27.5" class="st7" width="0" height="23.1"/>
		<path class="st7" d="M43.6,27.5L43.6,27.5L43.6,27.5z"/>
		<path class="st7" d="M43.6,27.5L43.6,27.5L43.6,27.5z"/>
		<rect x="66.7" y="27.5" class="st7" width="23.1" height="23.1"/>
		<polygon class="st7" points="66.7,27.5 89.7,27.5 89.7,27.5 		"/>
		<polygon class="st7" points="66.7,27.5 89.7,27.5 89.7,27.5 		"/>
		<rect x="89.7" y="27.5" class="st7" width="0" height="23.1"/>
		<path class="st7" d="M89.7,27.5L89.7,27.5L89.7,27.5z"/>
		<path class="st7" d="M89.7,27.5L89.7,27.5L89.7,27.5z"/>
		<path class="st7" d="M158.9,50.6H182v-4.3c-0.3-1.8-0.8-3.6-1.4-5.5c0-0.1,0,0.2-0.1,0.2c-1.6-4.9-4-9.5-7.1-13.5h-14.5V50.6z"/>
		<polygon class="st7" points="158.9,27.5 173.4,27.5 173.4,27.5 		"/>
		<polygon class="st7" points="158.9,27.5 173.4,27.5 173.4,27.5 		"/>
		<rect x="158.9" y="27.5" class="st7" width="0" height="23.1"/>
		<path class="st7" d="M158.9,27.5L158.9,27.5L158.9,27.5z"/>
		<path class="st7" d="M158.9,27.5L158.9,27.5L158.9,27.5z"/>
		<path class="st7" d="M182.5,50.6c-0.1-1.5-0.3-2.9-0.6-4.3v4.3H182.5z"/>
		<path class="st7" d="M20.5,50.6h-5.2c-0.5,7.8,1.3,15.5,4.7,23.1h0.6V50.6H20.5z"/>
		<polygon class="st7" points="20.5,50.6 15.3,50.6 15.3,50.6 		"/>
		<polygon class="st7" points="20.5,50.6 15.3,50.6 15.3,50.6 		"/>
		<rect x="20.5" y="50.6" class="st7" width="23.1" height="23.1"/>
		<polygon class="st7" points="20.5,50.6 43.6,50.6 43.6,50.6 		"/>
		<polygon class="st7" points="20.5,50.6 43.6,50.6 43.6,50.6 		"/>
		<rect x="43.6" y="50.6" class="st7" width="0" height="23.1"/>
		<path class="st7" d="M43.6,50.6L43.6,50.6L43.6,50.6z"/>
		<path class="st7" d="M43.6,50.6L43.6,50.6L43.6,50.6z"/>
		<rect x="66.7" y="50.6" class="st7" width="23.1" height="23.1"/>
		<polygon class="st7" points="66.7,50.6 89.7,50.6 89.7,50.6 		"/>
		<polygon class="st7" points="66.7,50.6 89.7,50.6 89.7,50.6 		"/>
		<rect x="89.7" y="50.6" class="st7" width="0" height="23.1"/>
		<path class="st7" d="M89.7,50.6L89.7,50.6L89.7,50.6z"/>
		<path class="st7" d="M89.7,50.6L89.7,50.6L89.7,50.6z"/>
		<path class="st7" d="M158.9,50.6v23.1h18.9c2-4.4,3.4-8.8,4.2-13.2v-9.8C182,50.6,158.9,50.6,158.9,50.6z"/>
		<polygon class="st7" points="158.9,50.6 182,50.6 182,50.6 		"/>
		<polygon class="st7" points="158.9,50.6 182,50.6 182,50.6 		"/>
		<rect x="158.9" y="50.6" class="st7" width="0" height="23.1"/>
		<path class="st7" d="M158.9,50.6L158.9,50.6L158.9,50.6z"/>
		<path class="st7" d="M158.9,50.6L158.9,50.6L158.9,50.6z"/>
		<path class="st7" d="M182,60.4c0.6-3.3,0.8-6.5,0.6-9.8H182V60.4z"/>
		<path class="st7" d="M19.9,73.6c0.2,0.4,0.4,0.9,0.6,1.3v-1.3H19.9z"/>
		<path class="st7" d="M43.6,73.6H20.5v1.3c3.6,7.5,8.7,14.8,14.7,21.7h8.4C43.6,96.6,43.6,73.6,43.6,73.6z"/>
		<rect x="43.6" y="73.6" class="st7" width="0" height="23.1"/>
		<rect x="66.7" y="73.6" class="st7" width="23.1" height="23.1"/>
		<rect x="89.7" y="73.6" class="st7" width="23.1" height="23.1"/>
		<rect x="89.7" y="73.6" class="st7" width="0" height="23.1"/>
		<path class="st7" d="M158.9,96.7h3.6c6.3-7.3,11.7-15.1,15.3-23.1h-18.9L158.9,96.7L158.9,96.7z"/>
		<rect x="158.9" y="73.6" class="st7" width="0" height="23.1"/>
		<path class="st7" d="M35.2,96.7c2.7,3.1,5.5,6.1,8.4,8.9v-8.9H35.2z"/>
		<polygon class="st7" points="43.6,96.7 35.2,96.7 35.2,96.7 		"/>
		<polygon class="st7" points="43.6,96.7 35.2,96.7 35.2,96.7 		"/>
		<polygon class="st7" points="43.6,96.7 43.6,105.6 43.6,105.6 		"/>
		<path class="st7" d="M43.6,96.7L43.6,96.7L43.6,96.7z"/>
		<path class="st7" d="M43.6,96.7L43.6,96.7L43.6,96.7z"/>
		<rect x="66.7" y="96.7" class="st7" width="23.1" height="23.1"/>
		<polygon class="st7" points="66.7,96.7 89.7,96.7 89.7,96.7 		"/>
		<polygon class="st7" points="66.7,96.7 89.7,96.7 89.7,96.7 		"/>
		<rect x="89.7" y="96.7" class="st7" width="0" height="23.1"/>
		<path class="st7" d="M89.7,96.7L89.7,96.7L89.7,96.7z"/>
		<path class="st7" d="M89.7,96.7L89.7,96.7L89.7,96.7z"/>
		<path class="st7" d="M158.9,100.7c1.2-1.3,2.4-2.6,3.6-4h-3.6V100.7z"/>
		<polygon class="st7" points="158.9,96.7 162.5,96.7 162.5,96.7 		"/>
		<polygon class="st7" points="158.9,96.7 162.5,96.7 162.5,96.7 		"/>
		<polygon class="st7" points="158.9,96.7 158.9,100.7 158.9,100.7 		"/>
		<path class="st7" d="M158.9,96.7L158.9,96.7L158.9,96.7z"/>
		<path class="st7" d="M158.9,96.7L158.9,96.7L158.9,96.7z"/>
		<path class="st7" d="M66.7,119.8v5.7c8.9,6.7,17.1,12.2,23.1,15.9v-21.6C89.8,119.8,66.7,119.8,66.7,119.8z"/>
		<polygon class="st7" points="89.7,119.8 89.7,141.3 89.7,141.3 		"/>
	</g>
	<g>
		<path class="st8" d="M66.7,27.5v-15c-3.1-0.7-6.3-1.1-9.6-1.1c-4.7,0-9.3,0.8-13.5,2.2v13.8L66.7,27.5L66.7,27.5z"/>
		<polygon class="st8" points="43.6,27.5 43.6,13.6 43.6,13.6 		"/>
		<path class="st8" d="M91.1,27.5c-0.5-0.5-0.9-0.9-1.3-1.3v1.3H91.1z"/>
		<path class="st8" d="M112.8,21.9c-1.1,0.9-3.5,2.9-6.2,5.6h6.2V21.9z"/>
		<polygon class="st8" points="89.7,27.5 89.7,26.2 89.7,26.2 		"/>
		<path class="st8" d="M135.9,27.5V11.7c-8.8,1-16.8,4.5-23,10.1c0,0,0,0-0.1,0v5.6h23.1V27.5z"/>
		<path class="st8" d="M158.9,27.5V15.7c-5.5-2.7-11.7-4.3-18.2-4.3c-1.6,0-3.2,0.1-4.8,0.3v15.8L158.9,27.5L158.9,27.5z"/>
		<polygon class="st8" points="135.9,27.5 135.9,11.7 135.9,11.7 		"/>
		<polygon class="st8" points="135.9,27.5 135.9,11.7 135.9,11.7 		"/>
		<polygon class="st8" points="158.9,27.5 158.9,15.7 158.9,15.7 		"/>
		<rect x="43.6" y="27.5" class="st8" width="23.1" height="23.1"/>
		<polygon class="st8" points="43.6,27.5 66.7,27.5 66.7,27.5 		"/>
		<polygon class="st8" points="43.6,27.5 66.7,27.5 66.7,27.5 		"/>
		<rect x="43.6" y="27.5" class="st8" width="0" height="23.1"/>
		<path class="st8" d="M43.6,27.5L43.6,27.5L43.6,27.5z"/>
		<path class="st8" d="M43.6,27.5L43.6,27.5L43.6,27.5z"/>
		<path class="st8" d="M89.7,50.6h23.1V27.5h-6.2c-2.6,2.7-5.5,6-7.6,9.7c-2.2-3.5-5.2-7-8-9.7h-1.3V50.6z"/>
		<polygon class="st8" points="112.8,27.5 106.6,27.5 106.6,27.5 		"/>
		<polygon class="st8" points="112.8,27.5 106.6,27.5 106.6,27.5 		"/>
		<polygon class="st8" points="89.7,27.5 91.1,27.5 91.1,27.5 		"/>
		<polygon class="st8" points="89.7,27.5 91.1,27.5 91.1,27.5 		"/>
		<rect x="89.7" y="27.5" class="st8" width="0" height="23.1"/>
		<path class="st8" d="M89.7,27.5L89.7,27.5L89.7,27.5z"/>
		<path class="st8" d="M89.7,27.5L89.7,27.5L89.7,27.5z"/>
		<rect x="112.8" y="27.5" class="st8" width="23.1" height="23.1"/>
		<polygon class="st8" points="112.8,27.5 135.9,27.5 135.9,27.5 		"/>
		<polygon class="st8" points="112.8,27.5 135.9,27.5 135.9,27.5 		"/>
		<rect x="135.9" y="27.5" class="st8" width="23.1" height="23.1"/>
		<polygon class="st8" points="135.9,27.5 158.9,27.5 158.9,27.5 		"/>
		<polygon class="st8" points="135.9,27.5 158.9,27.5 158.9,27.5 		"/>
		<rect x="135.9" y="27.5" class="st8" width="0" height="23.1"/>
		<rect x="135.9" y="27.5" class="st8" width="0" height="23.1"/>
		<path class="st8" d="M135.9,27.5L135.9,27.5L135.9,27.5z"/>
		<path class="st8" d="M135.9,27.5L135.9,27.5L135.9,27.5z"/>
		<path class="st8" d="M135.9,27.5L135.9,27.5L135.9,27.5z"/>
		<path class="st8" d="M135.9,27.5L135.9,27.5L135.9,27.5z"/>
		<rect x="158.9" y="27.5" class="st8" width="0" height="23.1"/>
		<path class="st8" d="M158.9,27.5L158.9,27.5L158.9,27.5z"/>
		<path class="st8" d="M158.9,27.5L158.9,27.5L158.9,27.5z"/>
		<rect x="43.6" y="50.6" class="st8" width="23.1" height="23.1"/>
		<polygon class="st8" points="43.6,50.6 66.7,50.6 66.7,50.6 		"/>
		<polygon class="st8" points="43.6,50.6 66.7,50.6 66.7,50.6 		"/>
		<rect x="43.6" y="50.6" class="st8" width="0" height="23.1"/>
		<path class="st8" d="M43.6,50.6L43.6,50.6L43.6,50.6z"/>
		<path class="st8" d="M43.6,50.6L43.6,50.6L43.6,50.6z"/>
		<rect x="89.7" y="50.6" class="st8" width="23.1" height="23.1"/>
		<polygon class="st8" points="89.7,50.6 112.8,50.6 112.8,50.6 		"/>
		<polygon class="st8" points="89.7,50.6 112.8,50.6 112.8,50.6 		"/>
		<rect x="89.7" y="50.6" class="st8" width="0" height="23.1"/>
		<path class="st8" d="M89.7,50.6L89.7,50.6L89.7,50.6z"/>
		<path class="st8" d="M89.7,50.6L89.7,50.6L89.7,50.6z"/>
		<rect x="112.8" y="50.6" class="st8" width="23.1" height="23.1"/>
		<polygon class="st8" points="112.8,50.6 135.9,50.6 135.9,50.6 		"/>
		<polygon class="st8" points="112.8,50.6 135.9,50.6 135.9,50.6 		"/>
		<rect x="135.9" y="50.6" class="st8" width="23.1" height="23.1"/>
		<polygon class="st8" points="135.9,50.6 158.9,50.6 158.9,50.6 		"/>
		<polygon class="st8" points="135.9,50.6 158.9,50.6 158.9,50.6 		"/>
		<rect x="135.9" y="50.6" class="st8" width="0" height="23.1"/>
		<rect x="135.9" y="50.6" class="st8" width="0" height="23.1"/>
		<path class="st8" d="M135.9,50.6L135.9,50.6L135.9,50.6z"/>
		<path class="st8" d="M135.9,50.6L135.9,50.6L135.9,50.6z"/>
		<path class="st8" d="M135.9,50.6L135.9,50.6L135.9,50.6z"/>
		<path class="st8" d="M135.9,50.6L135.9,50.6L135.9,50.6z"/>
		<rect x="158.9" y="50.6" class="st8" width="0" height="23.1"/>
		<path class="st8" d="M158.9,50.6L158.9,50.6L158.9,50.6z"/>
		<path class="st8" d="M158.9,50.6L158.9,50.6L158.9,50.6z"/>
		<rect x="43.6" y="73.6" class="st8" width="23.1" height="23.1"/>
		<rect x="43.6" y="73.6" class="st8" width="0" height="23.1"/>
		<rect x="112.8" y="73.6" class="st8" width="23.1" height="23.1"/>
		<rect x="135.9" y="73.6" class="st8" width="23.1" height="23.1"/>
		<rect x="135.9" y="73.6" class="st8" width="0" height="23.1"/>
		<rect x="135.9" y="73.6" class="st8" width="0" height="23.1"/>
		<rect x="158.9" y="73.6" class="st8" width="0" height="23.1"/>
		<path class="st8" d="M66.7,96.7H43.6v8.9c5.1,5.1,10.5,9.8,15.8,14.1h7.2v-23H66.7z"/>
		<polygon class="st8" points="43.6,96.7 66.7,96.7 66.7,96.7 		"/>
		<polygon class="st8" points="43.6,96.7 66.7,96.7 66.7,96.7 		"/>
		<polygon class="st8" points="43.6,96.7 43.6,105.6 43.6,105.6 		"/>
		<path class="st8" d="M43.6,96.7L43.6,96.7L43.6,96.7z"/>
		<path class="st8" d="M43.6,96.7L43.6,96.7L43.6,96.7z"/>
		<rect x="89.7" y="96.7" class="st8" width="23.1" height="23.1"/>
		<polygon class="st8" points="89.7,96.7 112.8,96.7 112.8,96.7 		"/>
		<rect x="89.7" y="96.7" class="st8" width="0" height="23.1"/>
		<path class="st8" d="M89.7,96.7L89.7,96.7L89.7,96.7z"/>
		<rect x="112.8" y="96.7" class="st8" width="23.1" height="23.1"/>
		<polygon class="st8" points="112.8,96.7 135.9,96.7 135.9,96.7 		"/>
		<polygon class="st8" points="112.8,96.7 135.9,96.7 135.9,96.7 		"/>
		<path class="st8" d="M135.9,96.7v23.1h2.4c7.1-5.7,14.2-12.2,20.6-19.1v-4H135.9z"/>
		<polygon class="st8" points="135.9,96.7 158.9,96.7 158.9,96.7 		"/>
		<polygon class="st8" points="135.9,96.7 158.9,96.7 158.9,96.7 		"/>
		<rect x="135.9" y="96.7" class="st8" width="0" height="23.1"/>
		<rect x="135.9" y="96.7" class="st8" width="0" height="23.1"/>
		<path class="st8" d="M135.9,96.7L135.9,96.7L135.9,96.7z"/>
		<path class="st8" d="M135.9,96.7L135.9,96.7L135.9,96.7z"/>
		<path class="st8" d="M135.9,96.7L135.9,96.7L135.9,96.7z"/>
		<path class="st8" d="M135.9,96.7L135.9,96.7L135.9,96.7z"/>
		<polygon class="st8" points="158.9,96.7 158.9,100.7 158.9,100.7 		"/>
		<path class="st8" d="M158.9,96.7L158.9,96.7L158.9,96.7z"/>
		<path class="st8" d="M158.9,96.7L158.9,96.7L158.9,96.7z"/>
		<path class="st8" d="M59.4,119.8c2.4,2,4.9,3.9,7.2,5.7v-5.7C66.7,119.8,59.4,119.8,59.4,119.8z"/>
		<path class="st8" d="M89.7,119.8v21.6c0.9,0.5,1.7,1,2.4,1.5h13.5c2-1.2,4.4-2.8,7.1-4.5v-18.6L89.7,119.8L89.7,119.8z"/>
		<polygon class="st8" points="89.7,119.8 89.7,141.3 89.7,141.3 		"/>
		<path class="st8" d="M112.8,119.8v18.6c6.5-4.2,14.6-9.9,23.1-16.6v-2H112.8L112.8,119.8z"/>
		<path class="st8" d="M135.9,121.7c0.8-0.6,1.6-1.3,2.4-2h-2.4V121.7z"/>
		<polygon class="st8" points="135.9,119.8 135.9,121.7 135.9,121.7 		"/>
		<polygon class="st8" points="135.9,119.8 135.9,121.7 135.9,121.7 		"/>
		<path class="st8" d="M98.9,146.8c0,0,2.5-1.4,6.7-4H92.1C96.4,145.4,98.9,146.8,98.9,146.8z"/>
		<polygon class="st8" points="92.2,142.8 105.7,142.8 105.7,142.8 		"/>
		<polygon class="st8" points="92.2,142.8 105.7,142.8 105.7,142.8 		"/>
	</g>
	<text transform="matrix(1 0 0 1 312.8075 125.3153)" class="st9 st2 st3">U</text>
	<text transform="matrix(1 0 0 1 294.4747 105.5772)" class="st9 st2 st10">4</text>
</g>
<text transform="matrix(1 0 0 1 587.2672 37.2813)" style="font-family:'ArialMT'; font-size:12px;">                     </text>
</svg>
