<?xml version="1.0" encoding="utf-8"?>
<!-- Generator: Adobe Illustrator 27.1.1, SVG Export Plug-In . SVG Version: 6.00 Build 0)  -->
<svg version="1.1" id="Layer_1" xmlns="http://www.w3.org/2000/svg" xmlns:xlink="http://www.w3.org/1999/xlink" x="0px" y="0px"
	 viewBox="0 0 604.9 167.8" style="enable-background:new 0 0 604.9 167.8;" xml:space="preserve">
<style type="text/css">
	.st0{fill:none;stroke:#E9DFD4;stroke-width:15;stroke-linecap:square;stroke-linejoin:round;stroke-miterlimit:11.3386;}
	.st1{fill:#84A59D;}
	.st2{font-family:'GreycliffCF-ExtraBold';}
	.st3{font-size:65px;}
	.st4{fill:none;stroke:#FFFFFF;stroke-width:3;stroke-linecap:round;stroke-linejoin:round;stroke-miterlimit:10;}
	
		.st5{opacity:0.8;fill:#5DA5DA;stroke:#FFFFFF;stroke-width:3;stroke-linecap:round;stroke-linejoin:round;stroke-miterlimit:10;enable-background:new    ;}
	
		.st6{opacity:0.8;fill:#DECF3F;stroke:#FFFFFF;stroke-width:3;stroke-linecap:round;stroke-linejoin:round;stroke-miterlimit:10;enable-background:new    ;}
	.st7{fill:#F28482;stroke:#FFFFFF;stroke-width:3;stroke-linecap:round;stroke-linejoin:round;stroke-miterlimit:10;}
	.st8{fill:#F5CAC3;stroke:#FFFFFF;stroke-width:3;stroke-linecap:round;stroke-linejoin:round;stroke-miterlimit:10;}
	.st9{fill:#E9DFD4;}
	.st10{font-size:35.065px;}
	.st11{fill:none;}
	.st12{font-size:27px;}
	.st13{font-family:'ArialMT';}
	.st14{font-size:12px;}
</style>
<g>
	<a xlink:href="/" >
		<path class="st0" d="M191.3,47.7c0-0.1,0,0.2-0.1,0.2c-5.3-17-21.2-29.5-39.9-29.5c-10.7,0-20.4,3.8-27.8,10.4
			c-2.2,1.7-9.5,7.9-13.8,15.3c-4.7-7.8-13.8-14.9-14.4-15.3c0,0,0,0,0,0l0,0c-7.3-6.5-17-10.4-27.5-10.4
			c-18.7,0-34.5,12.3-39.9,29.4c0,0.1,0,0.1-0.1,0.2c-17.3,51.2,81.7,105.9,81.7,105.9S208.6,98.9,191.3,47.7z"/>
		<g>
			<text transform="matrix(1 0 0 1 193.342 162.0677)" class="st1 st2 st3">MSA</text>
		</g>
		<polygon class="st4" points="192.7,57.5 192.7,53.1 192.7,53.1 192.7,57.5 192.7,57.5 192.7,67.3 192.7,67.3 		"/>
		<path class="st4" d="M169.6,80.5h-23.1l0,0h-23.1V57.5l0,0V34.4l0,0v-5.6l0,0v5.6l0,0v23.1l0,0v23.1h-23.1l0,0H77.4V57.5l0,0V34.4
			l0,0v-15l0,0v15l0,0v23.1l0,0v23.1H54.3l0,0H31.2V57.5l0,0V40l0,0v17.5l0,0v23.1h-0.6l0,0h0.6v1.3l0,0v-1.3h23.1l0,0h23.1v23.1
			l0,0v23.1h-7.2l0,0h7.2v5.7l0,0v-5.7h23.1l0,0h23.1v18.5l0,0v-18.6h23.1l0,0h2.4l0,0h-2.4l0,0h-23.1v-23.1l0,0V80.5h23.1l0,0
			H169.6L169.6,80.5h18.9l0,0H169.6L169.6,80.5z M123.5,103.6L123.5,103.6v23.1h-23.1l0,0H77.4v-23.1l0,0V80.5h23.1l0,0h23.1V103.6z
			"/>
		<polygon class="st5" points="192.7,57.5 192.7,57.5 193.2,57.5 193.2,57.5 		"/>
		<polygon class="st5" points="192.7,57.5 192.7,57.5 193.2,57.5 193.2,57.5 		"/>
		<rect x="100.4" y="80.5" class="st6" width="0" height="23.1"/>
		<polygon class="st6" points="100.4,103.6 123.5,103.6 123.5,103.6 		"/>
		<polygon class="st6" points="100.4,103.6 100.4,103.6 100.4,103.6 		"/>
		<g>
			<path class="st7" d="M54.3,20.5c-7.7,2.6-14.4,7.5-19.4,13.8h19.4V20.5z"/>
			<polygon class="st7" points="54.3,34.4 54.3,20.5 54.3,20.5 			"/>
			<path class="st7" d="M100.4,34.4v-1.3c-2.7-2.5-4.8-4.2-5.1-4.4c0,0,0,0,0,0l0,0c-5.1-4.5-11.2-7.7-17.9-9.3v15L100.4,34.4
				L100.4,34.4z"/>
			<polygon class="st7" points="100.4,34.4 100.4,33.1 100.4,33.1 			"/>
			<path class="st7" d="M184.1,34.4c-3.9-5-8.8-9-14.5-11.8v11.8H184.1z"/>
			<polygon class="st7" points="169.6,34.4 169.6,22.6 169.6,22.6 			"/>
			<path class="st7" d="M31.2,40c-1.3,2.4-2.4,5-3.3,7.7c0,0.1,0,0.1-0.1,0.2c-1.1,3.2-1.7,6.4-1.9,9.6h5.3L31.2,40L31.2,40z"/>
			<path class="st7" d="M54.3,57.5V34.4H34.9c-1.4,1.8-2.6,3.6-3.7,5.6v17.5H54.3z"/>
			<polygon class="st7" points="54.3,34.4 34.9,34.4 34.9,34.4 			"/>
			<polygon class="st7" points="54.3,34.4 34.9,34.4 34.9,34.4 			"/>
			<rect x="54.3" y="34.4" class="st7" width="0" height="23.1"/>
			<polygon class="st7" points="54.3,34.4 54.3,34.4 54.3,34.4 			"/>
			<polygon class="st7" points="54.3,34.4 54.3,34.4 54.3,34.4 			"/>
			<rect x="77.4" y="34.4" class="st7" width="23.1" height="23.1"/>
			<polygon class="st7" points="77.4,34.4 100.4,34.4 100.4,34.4 			"/>
			<polygon class="st7" points="77.4,34.4 100.4,34.4 100.4,34.4 			"/>
			<rect x="100.4" y="34.4" class="st7" width="0" height="23.1"/>
			<polygon class="st7" points="100.4,34.4 100.4,34.4 100.4,34.4 			"/>
			<polygon class="st7" points="100.4,34.4 100.4,34.4 100.4,34.4 			"/>
			<path class="st7" d="M169.6,57.5h23.1v-4.3c-0.3-1.8-0.8-3.6-1.4-5.5c0-0.1,0,0.2-0.1,0.2c-1.6-4.9-4-9.5-7.1-13.5h-14.5V57.5z"
				/>
			<polygon class="st7" points="169.6,34.4 184.1,34.4 184.1,34.4 			"/>
			<polygon class="st7" points="169.6,34.4 184.1,34.4 184.1,34.4 			"/>
			<rect x="169.6" y="34.4" class="st7" width="0" height="23.1"/>
			<polygon class="st7" points="169.6,34.4 169.6,34.4 169.6,34.4 			"/>
			<polygon class="st7" points="169.6,34.4 169.6,34.4 169.6,34.4 			"/>
			<path class="st7" d="M193.2,57.5c-0.1-1.5-0.3-2.9-0.6-4.3v4.3H193.2z"/>
			<path class="st7" d="M31.2,57.5H26c-0.5,7.8,1.3,15.5,4.7,23.1h0.6V57.5z"/>
			<polygon class="st7" points="31.2,57.5 26,57.5 26,57.5 			"/>
			<polygon class="st7" points="31.2,57.5 26,57.5 26,57.5 			"/>
			<rect x="31.2" y="57.5" class="st7" width="23.1" height="23.1"/>
			<polygon class="st7" points="31.2,57.5 54.3,57.5 54.3,57.5 			"/>
			<polygon class="st7" points="31.2,57.5 54.3,57.5 54.3,57.5 			"/>
			<rect x="54.3" y="57.5" class="st7" width="0" height="23.1"/>
			<polygon class="st7" points="54.3,57.5 54.3,57.5 54.3,57.5 			"/>
			<polygon class="st7" points="54.3,57.5 54.3,57.5 54.3,57.5 			"/>
			<rect x="77.4" y="57.5" class="st7" width="23.1" height="23.1"/>
			<polygon class="st7" points="77.4,57.5 100.4,57.5 100.4,57.5 			"/>
			<polygon class="st7" points="77.4,57.5 100.4,57.5 100.4,57.5 			"/>
			<rect x="100.4" y="57.5" class="st7" width="0" height="23.1"/>
			<polygon class="st7" points="100.4,57.5 100.4,57.5 100.4,57.5 			"/>
			<polygon class="st7" points="100.4,57.5 100.4,57.5 100.4,57.5 			"/>
			<path class="st7" d="M169.6,57.5v23.1h18.9c2-4.4,3.4-8.8,4.2-13.2v-9.8C192.7,57.5,169.6,57.5,169.6,57.5z"/>
			<polygon class="st7" points="169.6,57.5 192.7,57.5 192.7,57.5 			"/>
			<polygon class="st7" points="169.6,57.5 192.7,57.5 192.7,57.5 			"/>
			<rect x="169.6" y="57.5" class="st7" width="0" height="23.1"/>
			<polygon class="st7" points="169.6,57.5 169.6,57.5 169.6,57.5 			"/>
			<polygon class="st7" points="169.6,57.5 169.6,57.5 169.6,57.5 			"/>
			<path class="st7" d="M192.7,67.3c0.6-3.3,0.8-6.5,0.6-9.8h-0.6V67.3z"/>
			<path class="st7" d="M30.6,80.5c0.2,0.4,0.4,0.9,0.6,1.3v-1.3H30.6z"/>
			<path class="st7" d="M54.3,80.5H31.2v1.3c3.6,7.5,8.7,14.8,14.7,21.7h8.4V80.5z"/>
			<rect x="54.3" y="80.5" class="st7" width="0" height="23.1"/>
			<rect x="77.4" y="80.5" class="st7" width="23.1" height="23.1"/>
			<rect x="100.4" y="80.5" class="st7" width="23.1" height="23.1"/>
			<rect x="100.4" y="80.5" class="st7" width="0" height="23.1"/>
			<path class="st7" d="M169.6,103.6h3.6c6.3-7.3,11.7-15.1,15.3-23.1h-18.9V103.6z"/>
			<rect x="169.6" y="80.5" class="st7" width="0" height="23.1"/>
			<path class="st7" d="M45.9,103.6c2.7,3.1,5.5,6.1,8.4,8.9v-8.9H45.9z"/>
			<polygon class="st7" points="54.3,103.6 45.9,103.6 45.9,103.6 			"/>
			<polygon class="st7" points="54.3,103.6 45.9,103.6 45.9,103.6 			"/>
			<polygon class="st7" points="54.3,103.6 54.3,112.5 54.3,112.5 			"/>
			<polygon class="st7" points="54.3,103.6 54.3,103.6 54.3,103.6 			"/>
			<polygon class="st7" points="54.3,103.6 54.3,103.6 54.3,103.6 			"/>
			<rect x="77.4" y="103.6" class="st7" width="23.1" height="23.1"/>
			<polygon class="st7" points="77.4,103.6 100.4,103.6 100.4,103.6 			"/>
			<polygon class="st7" points="77.4,103.6 100.4,103.6 100.4,103.6 			"/>
			<rect x="100.4" y="103.6" class="st7" width="0" height="23.1"/>
			<polygon class="st7" points="100.4,103.6 100.4,103.6 100.4,103.6 			"/>
			<polygon class="st7" points="100.4,103.6 100.4,103.6 100.4,103.6 			"/>
			<path class="st7" d="M169.6,107.6c1.2-1.3,2.4-2.6,3.6-4h-3.6V107.6z"/>
			<polygon class="st7" points="169.6,103.6 173.2,103.6 173.2,103.6 			"/>
			<polygon class="st7" points="169.6,103.6 173.2,103.6 173.2,103.6 			"/>
			<polygon class="st7" points="169.6,103.6 169.6,107.6 169.6,107.6 			"/>
			<polygon class="st7" points="169.6,103.6 169.6,103.6 169.6,103.6 			"/>
			<polygon class="st7" points="169.6,103.6 169.6,103.6 169.6,103.6 			"/>
			<path class="st7" d="M77.4,126.7v5.7c8.9,6.7,17.1,12.2,23.1,15.9v-21.6H77.4z"/>
			<polygon class="st7" points="100.4,126.7 100.4,148.2 100.4,148.2 			"/>
		</g>
		<g>
			<path class="st8" d="M77.4,34.4v-15c-3.1-0.7-6.3-1.1-9.6-1.1c-4.7,0-9.3,0.8-13.5,2.2v13.8L77.4,34.4L77.4,34.4z"/>
			<polygon class="st8" points="54.3,34.4 54.3,20.5 54.3,20.5 			"/>
			<path class="st8" d="M101.8,34.4c-0.5-0.5-0.9-0.9-1.3-1.3v1.3H101.8z"/>
			<path class="st8" d="M123.5,28.8c-1.1,0.9-3.5,2.9-6.2,5.6h6.2V28.8z"/>
			<polygon class="st8" points="100.4,34.4 100.4,33.1 100.4,33.1 			"/>
			<path class="st8" d="M146.6,34.4V18.6c-8.8,1-16.8,4.5-23,10.1c0,0,0,0-0.1,0v5.6H146.6z"/>
			<path class="st8" d="M169.6,34.4V22.6c-5.5-2.7-11.7-4.3-18.2-4.3c-1.6,0-3.2,0.1-4.8,0.3v15.8L169.6,34.4L169.6,34.4z"/>
			<polygon class="st8" points="146.6,34.4 146.6,18.6 146.6,18.6 			"/>
			<polygon class="st8" points="146.6,34.4 146.6,18.6 146.6,18.6 			"/>
			<polygon class="st8" points="169.6,34.4 169.6,22.6 169.6,22.6 			"/>
			<rect x="54.3" y="34.4" class="st8" width="23.1" height="23.1"/>
			<polygon class="st8" points="54.3,34.4 77.4,34.4 77.4,34.4 			"/>
			<polygon class="st8" points="54.3,34.4 77.4,34.4 77.4,34.4 			"/>
			<rect x="54.3" y="34.4" class="st8" width="0" height="23.1"/>
			<polygon class="st8" points="54.3,34.4 54.3,34.4 54.3,34.4 			"/>
			<polygon class="st8" points="54.3,34.4 54.3,34.4 54.3,34.4 			"/>
			<path class="st8" d="M100.4,57.5h23.1V34.4h-6.2c-2.6,2.7-5.5,6-7.6,9.7c-2.2-3.5-5.2-7-8-9.7h-1.3V57.5z"/>
			<polygon class="st8" points="123.5,34.4 117.3,34.4 117.3,34.4 			"/>
			<polygon class="st8" points="123.5,34.4 117.3,34.4 117.3,34.4 			"/>
			<polygon class="st8" points="100.4,34.4 101.8,34.4 101.8,34.4 			"/>
			<polygon class="st8" points="100.4,34.4 101.8,34.4 101.8,34.4 			"/>
			<rect x="100.4" y="34.4" class="st8" width="0" height="23.1"/>
			<polygon class="st8" points="100.4,34.4 100.4,34.4 100.4,34.4 			"/>
			<polygon class="st8" points="100.4,34.4 100.4,34.4 100.4,34.4 			"/>
			<rect x="123.5" y="34.4" class="st8" width="23.1" height="23.1"/>
			<polygon class="st8" points="123.5,34.4 146.6,34.4 146.6,34.4 			"/>
			<polygon class="st8" points="123.5,34.4 146.6,34.4 146.6,34.4 			"/>
			<rect x="146.6" y="34.4" class="st8" width="23.1" height="23.1"/>
			<polygon class="st8" points="146.6,34.4 169.6,34.4 169.6,34.4 			"/>
			<polygon class="st8" points="146.6,34.4 169.6,34.4 169.6,34.4 			"/>
			<rect x="146.6" y="34.4" class="st8" width="0" height="23.1"/>
			<rect x="146.6" y="34.4" class="st8" width="0" height="23.1"/>
			<polygon class="st8" points="146.6,34.4 146.6,34.4 146.6,34.4 			"/>
			<polygon class="st8" points="146.6,34.4 146.6,34.4 146.6,34.4 			"/>
			<polygon class="st8" points="146.6,34.4 146.6,34.4 146.6,34.4 			"/>
			<polygon class="st8" points="146.6,34.4 146.6,34.4 146.6,34.4 			"/>
			<rect x="169.6" y="34.4" class="st8" width="0" height="23.1"/>
			<polygon class="st8" points="169.6,34.4 169.6,34.4 169.6,34.4 			"/>
			<polygon class="st8" points="169.6,34.4 169.6,34.4 169.6,34.4 			"/>
			<rect x="54.3" y="57.5" class="st8" width="23.1" height="23.1"/>
			<polygon class="st8" points="54.3,57.5 77.4,57.5 77.4,57.5 			"/>
			<polygon class="st8" points="54.3,57.5 77.4,57.5 77.4,57.5 			"/>
			<rect x="54.3" y="57.5" class="st8" width="0" height="23.1"/>
			<polygon class="st8" points="54.3,57.5 54.3,57.5 54.3,57.5 			"/>
			<polygon class="st8" points="54.3,57.5 54.3,57.5 54.3,57.5 			"/>
			<rect x="100.4" y="57.5" class="st8" width="23.1" height="23.1"/>
			<polygon class="st8" points="100.4,57.5 123.5,57.5 123.5,57.5 			"/>
			<polygon class="st8" points="100.4,57.5 123.5,57.5 123.5,57.5 			"/>
			<rect x="100.4" y="57.5" class="st8" width="0" height="23.1"/>
			<polygon class="st8" points="100.4,57.5 100.4,57.5 100.4,57.5 			"/>
			<polygon class="st8" points="100.4,57.5 100.4,57.5 100.4,57.5 			"/>
			<rect x="123.5" y="57.5" class="st8" width="23.1" height="23.1"/>
			<polygon class="st8" points="123.5,57.5 146.6,57.5 146.6,57.5 			"/>
			<polygon class="st8" points="123.5,57.5 146.6,57.5 146.6,57.5 			"/>
			<rect x="146.6" y="57.5" class="st8" width="23.1" height="23.1"/>
			<polygon class="st8" points="146.6,57.5 169.6,57.5 169.6,57.5 			"/>
			<polygon class="st8" points="146.6,57.5 169.6,57.5 169.6,57.5 			"/>
			<rect x="146.6" y="57.5" class="st8" width="0" height="23.1"/>
			<rect x="146.6" y="57.5" class="st8" width="0" height="23.1"/>
			<polygon class="st8" points="146.6,57.5 146.6,57.5 146.6,57.5 			"/>
			<polygon class="st8" points="146.6,57.5 146.6,57.5 146.6,57.5 			"/>
			<polygon class="st8" points="146.6,57.5 146.6,57.5 146.6,57.5 			"/>
			<polygon class="st8" points="146.6,57.5 146.6,57.5 146.6,57.5 			"/>
			<rect x="169.6" y="57.5" class="st8" width="0" height="23.1"/>
			<polygon class="st8" points="169.6,57.5 169.6,57.5 169.6,57.5 			"/>
			<polygon class="st8" points="169.6,57.5 169.6,57.5 169.6,57.5 			"/>
			<rect x="54.3" y="80.5" class="st8" width="23.1" height="23.1"/>
			<rect x="54.3" y="80.5" class="st8" width="0" height="23.1"/>
			<rect x="123.5" y="80.5" class="st8" width="23.1" height="23.1"/>
			<rect x="146.6" y="80.5" class="st8" width="23.1" height="23.1"/>
			<rect x="146.6" y="80.5" class="st8" width="0" height="23.1"/>
			<rect x="146.6" y="80.5" class="st8" width="0" height="23.1"/>
			<rect x="169.6" y="80.5" class="st8" width="0" height="23.1"/>
			<path class="st8" d="M77.4,103.6H54.3v8.9c5.1,5.1,10.5,9.8,15.8,14.1h7.2V103.6z"/>
			<polygon class="st8" points="54.3,103.6 77.4,103.6 77.4,103.6 			"/>
			<polygon class="st8" points="54.3,103.6 77.4,103.6 77.4,103.6 			"/>
			<polygon class="st8" points="54.3,103.6 54.3,112.5 54.3,112.5 			"/>
			<polygon class="st8" points="54.3,103.6 54.3,103.6 54.3,103.6 			"/>
			<polygon class="st8" points="54.3,103.6 54.3,103.6 54.3,103.6 			"/>
			<rect x="100.4" y="103.6" class="st8" width="23.1" height="23.1"/>
			<polygon class="st8" points="100.4,103.6 123.5,103.6 123.5,103.6 			"/>
			<rect x="100.4" y="103.6" class="st8" width="0" height="23.1"/>
			<polygon class="st8" points="100.4,103.6 100.4,103.6 100.4,103.6 			"/>
			<rect x="123.5" y="103.6" class="st8" width="23.1" height="23.1"/>
			<polygon class="st8" points="123.5,103.6 146.6,103.6 146.6,103.6 			"/>
			<polygon class="st8" points="123.5,103.6 146.6,103.6 146.6,103.6 			"/>
			<path class="st8" d="M146.6,103.6v23.1h2.4c7.1-5.7,14.2-12.2,20.6-19.1v-4H146.6z"/>
			<polygon class="st8" points="146.6,103.6 169.6,103.6 169.6,103.6 			"/>
			<polygon class="st8" points="146.6,103.6 169.6,103.6 169.6,103.6 			"/>
			<rect x="146.6" y="103.6" class="st8" width="0" height="23.1"/>
			<rect x="146.6" y="103.6" class="st8" width="0" height="23.1"/>
			<polygon class="st8" points="146.6,103.6 146.6,103.6 146.6,103.6 			"/>
			<polygon class="st8" points="146.6,103.6 146.6,103.6 146.6,103.6 			"/>
			<polygon class="st8" points="146.6,103.6 146.6,103.6 146.6,103.6 			"/>
			<polygon class="st8" points="146.6,103.6 146.6,103.6 146.6,103.6 			"/>
			<polygon class="st8" points="169.6,103.6 169.6,107.6 169.6,107.6 			"/>
			<polygon class="st8" points="169.6,103.6 169.6,103.6 169.6,103.6 			"/>
			<polygon class="st8" points="169.6,103.6 169.6,103.6 169.6,103.6 			"/>
			<path class="st8" d="M70.1,126.7c2.4,2,4.9,3.9,7.2,5.7v-5.7C77.4,126.7,70.1,126.7,70.1,126.7z"/>
			<path class="st8" d="M100.4,126.7v21.6c0.9,0.5,1.7,1,2.4,1.5h13.5c2-1.2,4.4-2.8,7.1-4.5v-18.6L100.4,126.7L100.4,126.7z"/>
			<polygon class="st8" points="100.4,126.7 100.4,148.2 100.4,148.2 			"/>
			<path class="st8" d="M123.5,126.7v18.6c6.5-4.2,14.6-9.9,23.1-16.6v-2L123.5,126.7L123.5,126.7z"/>
			<path class="st8" d="M146.6,128.6c0.8-0.6,1.6-1.3,2.4-2h-2.4V128.6z"/>
			<polygon class="st8" points="146.6,126.7 146.6,128.6 146.6,128.6 			"/>
			<polygon class="st8" points="146.6,126.7 146.6,128.6 146.6,128.6 			"/>
			<path class="st8" d="M109.6,153.7c0,0,2.5-1.4,6.7-4h-13.5C107.1,152.3,109.6,153.7,109.6,153.7z"/>
			<polygon class="st8" points="102.9,149.7 116.4,149.7 116.4,149.7 			"/>
			<polygon class="st8" points="102.9,149.7 116.4,149.7 116.4,149.7 			"/>
		</g>
		<text transform="matrix(1 0 0 1 323.5449 132.2592)" class="st9 st2 st3">U</text>
		<text transform="matrix(1 0 0 1 305.2121 112.5211)" class="st9 st2 st10">4</text>
		<rect x="216.3" y="16.2" class="st11" width="403.7" height="128.6"/>
		<text transform="matrix(1 0 0 1 218.1031 37.2813)" class="st1 st2 st12">A simple visualisation tool for </text>
		<text transform="matrix(1 0 0 1 587.2672 37.2813)" class="st13 st14">                     </text>
		<text transform="matrix(1 0 0 1 218.1031 67.2813)" class="st1 st2 st12">Multiple Sequence Alignments</text>
	</a>
</g>
</svg>
