<svg width="100%" version="1.1" id="Layer_1" xmlns="http://www.w3.org/2000/svg" xmlns:xlink="http://www.w3.org/1999/xlink" x="0px"
     y="0px"
     viewBox="0 0 570.1 137.4" style="enable-background:new 0 0 570.1 137.4;" xml:space="preserve">
<style type="text/css">
	.stf0{fill:none;}
	.stf1{fill:#1A8AB2;}
	.stf2{font-family:'GreycliffCF-ExtraBold';}
	.stf3{font-size:27px;}
	.stf4{fill:#1E93B2;}
	.stf5{fill:#FFFFFF;}
	.stf6{font-family:'GreycliffCF-Bold';}
	.stf7{font-size:48.2763px;}
	.stf8{fill:#C24765;}
</style>
    <g class="webflags_logo_svg">
                        <a xlink:href="/webflags">
<g>
	<path class="stf0" d="M323.8,127.3"/>
</g>
                            <rect x="10.2" y="8.9" class="stf0" width="551.7" height="98.7"/>
                            <text transform="matrix(1 0 0 1 10.2315 28.2405)"><tspan x="0" y="0" class="stf1 stf2 stf3">Predicting protein functional association by </tspan>
                                <tspan x="0" y="30"
                                       class="stf1 stf2 stf3">analysis of conservation of genomic context</tspan></text>
                            <path class="stf4"
                                  d="M154.5,127.3H10.2v-52h144.3c34.3,26,34.3,26,34.3,26S188.7,101.3,154.5,127.3z"/>
                            <g>
	<text transform="matrix(1 0 0 1 36.0179 115.1397)" class="stf5 stf6 stf7">web</text>
</g>
                            <path class="stf8"
                                  d="M368.7,127.3h-177v-52h177c34.3,26,34.3,26,34.3,26S402.9,101.3,368.7,127.3z"/>
                            <g>
	<text transform="matrix(1 0 0 1 221.4235 117.5851)" class="stf5 stf6 stf7">FlaGs</text>
</g>
                        </a></g>
</svg>

