<?xml version="1.0" encoding="utf-8"?>
<!-- Generator: Adobe Illustrator 27.1.1, SVG Export Plug-In . SVG Version: 6.00 Build 0)  -->
<svg version="1.1" id="Layer_1" height="180" xmlns="http://www.w3.org/2000/svg" xmlns:xlink="http://www.w3.org/1999/xlink" x="0px"
     y="0px"
     viewBox="0 0 655.29 168.92" style="enable-background:new 0 0 655.29 168.92;" xml:space="preserve">
<style type="text/css">
	.st0{fill:none;stroke:#EAE0D5;stroke-width:16;stroke-linecap:square;stroke-linejoin:round;stroke-miterlimit:11.3386;}
	.st1{fill:none;}
	.st2{fill:none;stroke:#EAE0D5;stroke-width:16;stroke-linejoin:round;}
	.st3{fill:#EAE0D5;}
	.st4{fill:none;stroke:#FFFFFF;stroke-width:2;stroke-miterlimit:11.3386;}
	.st5{fill:none;stroke:#EAE0D5;stroke-width:16;stroke-linejoin:round;}
	.st6{fill:#EAE0D5;}
	.st7{font-family:'GreycliffCF-ExtraBold';}
	.st8{font-size:65px;}
	.st9{fill:none;stroke:#FFFFFF;stroke-width:2;stroke-linejoin:round;stroke-miterlimit:11.3386;}
	.st10{fill:#EAE0D5;}
	.st11{font-size:35.065px;}
	.st12{fill:#1A8AB2;}
	.st13{font-size:27px;}
</style>
    <g class="uorf4u_logo_svg">
            <a xlink:href="/uorf4u">
<path class="st0" d="M104.74,41.45 M186.44,44.87c-0.02-0.06-0.04,0.24-0.06,0.18c-5.34-17.02-21.17-29.53-39.86-29.53
	c-10.68,0-20.44,3.76-27.83,10.4c-2.17,1.74-9.53,7.92-13.82,15.34c-4.71-7.78-13.82-14.9-14.4-15.34
	c-0.01-0.01-0.02-0.01-0.02-0.02l-0.01-0.01c-7.35-6.47-16.97-10.38-27.51-10.38c-18.69,0-34.52,12.33-39.86,29.35
	c-0.02,0.06-0.04,0.11-0.06,0.18c-17.33,51.23,81.73,105.87,81.73,105.87S203.76,96.1,186.44,44.87z"/>
                <g>
	<path class="st1" d="M418.9,154.17"/>
</g>
                <g>
	<g>
		<path class="st2" d="M104.74,150.92c0,0,24.81-13.74,47.42-33.89"/>
        <g>
			<polygon class="st3" points="160.32,132.21 169.1,99.88 136.71,108.43 			"/>
		</g>
	</g>
</g>
                <polyline class="st4" points="135.41,107.67 170.52,98.48 160.94,133.47 "/>
                <g>
	<g>
		<path class="st5" d="M32.96,90.44c23.16,33.67,71.77,60.48,71.77,60.48"/>
        <g>
			<polygon class="st6" points="92.34,163.22 125.84,162.57 108.53,133.88 			"/>
		</g>
	</g>
</g>
                <g>
	<text transform="matrix(1 0 0 1 180.7972 160.9114)" class="st3 st7 st8">uORF</text>
</g>
                <line class="st9" x1="25.44" y1="94.42" x2="39.14" y2="84.94"/>
                <text transform="matrix(1 0 0 1 342.9015 129.0622)" class="st10 st7 st8">U</text>
                <line class="st4" x1="111.76" y1="137.3" x2="120.06" y2="151.05"/>
                <text transform="matrix(1 0 0 1 324.5687 109.3241)" class="st10 st7 st11">4</text>
                <rect x="208.82" y="15.52" class="st1" width="452.86" height="128.63"/>
                <text transform="matrix(1 0 0 1 208.8228 34.8242)"><tspan x="0" y="0" class="st12 st7 st13">A bioinformatics tool for conserved </tspan>
                    <tspan x="0" y="30" class="st12 st7 st13">upstream ORF annotation</tspan></text>
			</a></g>
</svg>
