<?xml version="1.0" encoding="utf-8"?>
<!-- Generator: Adobe Illustrator 27.1.1, SVG Export Plug-In . SVG Version: 6.00 Build 0)  -->
<svg version="1.1" id="Layer_1" xmlns="http://www.w3.org/2000/svg" xmlns:xlink="http://www.w3.org/1999/xlink" x="0px" y="0px"
	 viewBox="0 0 292.6 154.6" style="enable-background:new 0 0 292.6 154.6;" xml:space="preserve">
<style type="text/css">
	.st0{fill:#212C31;}
	.st1{fill:none;stroke:#FFFFFF;stroke-width:17;stroke-linecap:round;stroke-linejoin:round;stroke-miterlimit:11.3386;}
</style>
<rect x="-23.6" y="-11.9" class="st0" width="336.7" height="179.6"/>
<path class="st1" d="M195.6,38.8c0-0.1,0,0.2-0.1,0.2c-5.3-17-21.2-29.5-39.9-29.5c-10.7,0-20.4,3.8-27.8,10.4
	c-2.2,1.7-9.5,7.9-13.8,15.3c-4.7-7.8-13.8-14.9-14.4-15.3l0,0l0,0c-7.3-6.4-17-10.4-27.5-10.4c-18.7,0-34.5,12.3-39.9,29.4
	c0,0.1,0,0.1-0.1,0.2C14.8,90.3,113.8,145,113.8,145S213,90,195.6,38.8z"/>
</svg>
