<?xml version="1.0" encoding="utf-8"?>
<!-- Generator: Adobe Illustrator 27.1.1, SVG Export Plug-In . SVG Version: 6.00 Build 0)  -->
<svg version="1.1" id="Layer_1" xmlns="http://www.w3.org/2000/svg" xmlns:xlink="http://www.w3.org/1999/xlink" x="0px" y="0px"
	 viewBox="0 0 570.1 137.4" style="enable-background:new 0 0 570.1 137.4;" xml:space="preserve">
<style type="text/css">
	.st0{fill:none;}
	.st1{fill:#1A8AB2;}
	.st2{font-family:'GreycliffCF-ExtraBold';}
	.st3{font-size:27px;}
	.st4{fill:#1E93B2;}
	.st5{fill:#FFFFFF;}
	.st6{font-family:'GreycliffCF-Bold';}
	.st7{font-size:48.2763px;}
	.st8{fill:#C24765;}
</style>
<g>
	<path class="st0" d="M323.8,127.3"/>
</g>
<rect x="10.2" y="8.9" class="st0" width="551.7" height="98.7"/>
<text transform="matrix(1 0 0 1 10.2315 28.2405)"><tspan x="0" y="0" class="st1 st2 st3">Predicting protein functional association by </tspan><tspan x="0" y="30" class="st1 st2 st3">analysis of conservation of genomic context</tspan></text>
<path class="st4" d="M154.5,127.3H10.2v-52h144.3c34.3,26,34.3,26,34.3,26S188.7,101.3,154.5,127.3z"/>
<g>
	<text transform="matrix(1 0 0 1 36.0179 115.1397)" class="st5 st6 st7">web</text>
</g>
<path class="st8" d="M368.7,127.3h-177v-52h177c34.3,26,34.3,26,34.3,26S402.9,101.3,368.7,127.3z"/>
<g>
	<text transform="matrix(1 0 0 1 221.4235 117.5851)" class="st5 st6 st7">FlaGs</text>
</g>
</svg>
